<svg width="48" height="48" viewBox="0 0 48 48" fill="none" xmlns="http://www.w3.org/2000/svg">
<g clip-path="url(#clip0)">
<rect width="48" height="48" fill="white"/>
<path d="M38 22.0635V40C38 43.5899 35.0899 46.5 31.5 46.5H16C12.4101 46.5 9.5 43.5899 9.5 40V22.5879C9.5 17.5651 14.954 14.4402 19.2872 16.9804L19.6643 17.2014C22.5372 18.8855 26.109 18.8289 28.9271 17.0546C32.8688 14.5728 38 17.4056 38 22.0635Z" stroke="#05202B" stroke-width="3"/>
<path d="M19.875 1.125H27.625C29.0057 1.125 30.125 2.24429 30.125 3.625V11.2614L27.9425 12.9402C25.7351 14.6383 22.6911 14.7413 20.3739 13.1965L17.375 11.1972V3.625C17.375 2.24429 18.4943 1.125 19.875 1.125Z" stroke="#05202B" stroke-width="3"/>
<path d="M27.211 31.6868L27.168 29.1559L27.125 26.625" stroke="#28B896" stroke-width="3" stroke-linecap="round"/>
<path d="M31.625 26.625L31.6645 29.1559L31.704 31.6869" stroke="#28B896" stroke-width="3" stroke-linecap="round"/>
</g>
<defs>
<clipPath id="clip0">
<rect width="48" height="48" fill="white"/>
</clipPath>
</defs>
</svg>
