<svg width="48" height="48" viewBox="0 0 48 48" fill="none" xmlns="http://www.w3.org/2000/svg">
<g clip-path="url(#clip0)">
<rect width="48" height="48" fill="white"/>
<path d="M5.4967 3.5H42.5525C45.001 3.5 46.7977 5.8011 46.2038 8.17656C45.7799 9.87209 44.2446 11.0527 42.4971 11.027L5.44536 10.4822C3.88287 10.4592 2.52595 9.40074 2.12331 7.89084C1.53226 5.67442 3.20282 3.5 5.4967 3.5Z" fill="#05202B" stroke="#05202B" stroke-width="3"/>
<path d="M23.3887 6.14395L23.4824 6.14999L23.5761 6.14431L34.8093 5.46351C39.697 5.16729 43.8236 9.0513 43.8236 13.9479V34.1197C43.8236 38.033 41.1517 41.4407 37.3514 42.3742L26.7642 44.975C25.4715 45.2926 24.1222 45.3021 22.8251 45.0028L11.0593 42.2876C7.20259 41.3976 4.47061 37.9634 4.47061 34.0053V13.9895C4.47061 9.07975 8.61831 5.19102 13.5179 5.50712L23.3887 6.14395Z" stroke="#05202B" stroke-width="3"/>
<rect x="1.64706" y="8.61765" width="45" height="5.29412" rx="2.64706" fill="#28B896"/>
<circle cx="24.1471" cy="27.1471" r="10.4118" fill="#28B896" stroke="#05202B" stroke-width="3"/>
<circle cx="24.1471" cy="27.1471" r="5.11765" fill="#05202B" stroke="#28B896" stroke-width="3"/>
<circle cx="10.9118" cy="17.8824" r="1.32353" fill="#28B896"/>
</g>
<defs>
<clipPath id="clip0">
<rect width="48" height="48" fill="white"/>
</clipPath>
</defs>
</svg>
