<svg width="48" height="48" viewBox="0 0 48 48" fill="none" xmlns="http://www.w3.org/2000/svg">
<g clip-path="url(#clip0)">
<rect width="48" height="48" fill="white"/>
<path d="M4.31089 6.5H43.4957C45.1869 6.5 46.3836 8.15342 45.8552 9.75996C45.5168 10.7887 44.5508 11.4796 43.4679 11.4675L4.28558 11.0296C3.33313 11.0189 2.48913 10.4135 2.17377 9.51472C1.65698 8.04187 2.75 6.5 4.31089 6.5Z" fill="#05202B" stroke="#05202B" stroke-width="3"/>
<path d="M43.5 16.2424V33.3278C43.5 37.2806 40.7752 40.7116 36.9252 41.6069L26.5127 44.0283C25.2836 44.3141 24.0063 44.3227 22.7735 44.0533L11.186 41.5221C7.28262 40.6694 4.5 37.2133 4.5 33.2179V16.2424C4.5 11.548 8.30558 7.74243 13 7.74243H23.3438L35 7.74243C39.6944 7.74243 43.5 11.548 43.5 16.2424Z" stroke="#05202B" stroke-width="3"/>
<rect x="1.64706" y="8.61766" width="45" height="5.29412" rx="2.64706" fill="#28B896"/>
<circle cx="24.1471" cy="27.1471" r="10.4118" fill="#28B896" stroke="#05202B" stroke-width="3"/>
<circle cx="24.1471" cy="27.1471" r="6.61765" fill="#05202B"/>
<circle cx="10.9118" cy="17.8824" r="1.32353" fill="#28B896"/>
<circle cx="24" cy="27" r="3" fill="white"/>
</g>
<defs>
<clipPath id="clip0">
<rect width="48" height="48" fill="white"/>
</clipPath>
</defs>
</svg>
